<svg width="1665" height="898" xmlns="http://www.w3.org/2000/svg">
	<g>
		<path d="M-17,-23L-87,86L126,118Z" fill="#fbfdff" stroke="#fbfdff"/>
		<path d="M-17,-23L126,118L186,76Z" fill="#f5f9fd" stroke="#f5f9fd"/>
		<path d="M-17,-23L186,76L58,-127Z" fill="#f7fafe" stroke="#f7fafe"/>
		<path d="M58,-127L186,76L211,-118Z" fill="#f2f7fc" stroke="#f2f7fc"/>
		<path d="M58,-127L211,-118L1298,-125Z" fill="#d9e9f4" stroke="#d9e9f4"/>
		<path d="M211,-118L186,76L355,-61Z" fill="#ecf4fa" stroke="#ecf4fa"/>
		<path d="M211,-118L355,-61L497,-44Z" fill="#e6f0f8" stroke="#e6f0f8"/>
		<path d="M211,-118L497,-44L660,-38Z" fill="#dfecf6" stroke="#dfecf6"/>
		<path d="M211,-118L660,-38L1298,-125Z" fill="#c3deee" stroke="#c3deee"/>
		<path d="M355,-61L186,76L342,104Z" fill="#eaf2fa" stroke="#eaf2fa"/>
		<path d="M355,-61L342,104L497,-44Z" fill="#e4eef8" stroke="#e4eef8"/>
		<path d="M497,-44L342,104L526,103Z" fill="#dfecf6" stroke="#dfecf6"/>
		<path d="M497,-44L526,103L660,-38Z" fill="#d5e7f2" stroke="#d5e7f2"/>
		<path d="M660,-38L526,103L678,78Z" fill="#cfe5f0" stroke="#cfe5f0"/>
		<path d="M660,-38L678,78L817,-35Z" fill="#c3deee" stroke="#c3deee"/>
		<path d="M660,-38L817,-35L1298,-125Z" fill="#acd1e7" stroke="#acd1e7"/>
		<path d="M817,-35L678,78L802,125Z" fill="#bddbed" stroke="#bddbed"/>
		<path d="M817,-35L802,125L943,-29Z" fill="#b3d5ea" stroke="#b3d5ea"/>
		<path d="M817,-35L943,-29L1298,-125Z" fill="#a3cae4" stroke="#a3cae4"/>
		<path d="M943,-29L802,125L982,82Z" fill="#aed2e8" stroke="#aed2e8"/>
		<path d="M943,-29L982,82L1127,-22Z" fill="#a3cae4" stroke="#a3cae4"/>
		<path d="M943,-29L1127,-22L1298,-125Z" fill="#9ac2df" stroke="#9ac2df"/>
		<path d="M1127,-22L982,82L1137,128Z" fill="#9dc5e1" stroke="#9dc5e1"/>
		<path d="M1127,-22L1137,128L1334,20Z" fill="#94bcdc" stroke="#94bcdc"/>
		<path d="M1127,-22L1334,20L1298,-125Z" fill="#90b8da" stroke="#90b8da"/>
		<path d="M1298,-125L1334,20L1452,-45Z" fill="#89acd1" stroke="#89acd1"/>
		<path d="M1298,-125L1452,-45L1590,-39Z" fill="#84a3cb" stroke="#84a3cb"/>
		<path d="M1298,-125L1590,-39L1870,-49Z" fill="#8095c0" stroke="#8095c0"/>
		<path d="M1452,-45L1334,20L1448,102Z" fill="#86a7cd" stroke="#86a7cd"/>
		<path d="M1452,-45L1448,102L1529,126Z" fill="#83a0c8" stroke="#83a0c8"/>
		<path d="M1452,-45L1529,126L1590,-39Z" fill="#809bc4" stroke="#809bc4"/>
		<path d="M1590,-39L1529,126L1633,186Z" fill="#8095c0" stroke="#8095c0"/>
		<path d="M1590,-39L1633,186L1752,43Z" fill="#808dba" stroke="#808dba"/>
		<path d="M1590,-39L1752,43L1752,-27Z" fill="#8089b7" stroke="#8089b7"/>
		<path d="M1590,-39L1752,-27L1870,-49Z" fill="#8085b4" stroke="#8085b4"/>
		<path d="M1752,-27L1752,43L1859,44Z" fill="#8080b0" stroke="#8080b0"/>
		<path d="M1752,-27L1859,44L1870,-49Z" fill="#8080ac" stroke="#8080ac"/>
		<path d="M1870,-49L1859,44L1891,266Z" fill="#8080a9" stroke="#8080a9"/>
		<path d="M-87,86L-133,523L-91,374Z" fill="#e0f9ff" stroke="#e0f9ff"/>
		<path d="M-87,86L-91,374L-53,210Z" fill="#f6ffff" stroke="#f6ffff"/>
		<path d="M-87,86L-53,210L126,118Z" fill="#fafdff" stroke="#fafdff"/>
		<path d="M126,118L-53,210L73,281Z" fill="#f1fbfe" stroke="#f1fbfe"/>
		<path d="M126,118L73,281L236,170Z" fill="#ecf8fc" stroke="#ecf8fc"/>
		<path d="M126,118L236,170L186,76Z" fill="#eff6fc" stroke="#eff6fc"/>
		<path d="M186,76L236,170L342,104Z" fill="#ecf3fa" stroke="#ecf3fa"/>
		<path d="M342,104L236,170L356,258Z" fill="#e3f1f9" stroke="#e3f1f9"/>
		<path d="M342,104L356,258L485,196Z" fill="#deeef8" stroke="#deeef8"/>
		<path d="M342,104L485,196L526,103Z" fill="#ddecf6" stroke="#ddecf6"/>
		<path d="M526,103L485,196L644,236Z" fill="#d0e8f3" stroke="#d0e8f3"/>
		<path d="M526,103L644,236L678,78Z" fill="#cde5f1" stroke="#cde5f1"/>
		<path d="M678,78L644,236L768,228Z" fill="#c0e0ee" stroke="#c0e0ee"/>
		<path d="M678,78L768,228L802,125Z" fill="#bddced" stroke="#bddced"/>
		<path d="M802,125L768,228L861,316Z" fill="#aed8eb" stroke="#aed8eb"/>
		<path d="M802,125L861,316L1000,250Z" fill="#a5d3e9" stroke="#a5d3e9"/>
		<path d="M802,125L1000,250L982,82Z" fill="#a8d0e7" stroke="#a8d0e7"/>
		<path d="M982,82L1000,250L1137,128Z" fill="#9dc9e3" stroke="#9dc9e3"/>
		<path d="M1137,128L1000,250L1118,242Z" fill="#95c5e1" stroke="#95c5e1"/>
		<path d="M1137,128L1118,242L1228,282Z" fill="#8ebfde" stroke="#8ebfde"/>
		<path d="M1137,128L1228,282L1334,20Z" fill="#8fb9db" stroke="#8fb9db"/>
		<path d="M1334,20L1228,282L1448,102Z" fill="#89afd3" stroke="#89afd3"/>
		<path d="M1448,102L1228,282L1451,224Z" fill="#81abd0" stroke="#81abd0"/>
		<path d="M1448,102L1451,224L1529,126Z" fill="#7fa0c8" stroke="#7fa0c8"/>
		<path d="M1529,126L1451,224L1633,186Z" fill="#7a9ac3" stroke="#7a9ac3"/>
		<path d="M1752,43L1633,186L1778,248Z" fill="#7c86b5" stroke="#7c86b5"/>
		<path d="M1752,43L1778,248L1859,44Z" fill="#8080af" stroke="#8080af"/>
		<path d="M1859,44L1778,248L1891,266Z" fill="#7a80ab" stroke="#7a80ab"/>
		<path d="M-53,210L-91,374L73,281Z" fill="#e6faff" stroke="#e6faff"/>
		<path d="M73,281L-91,374L71,431Z" fill="#d2f2ff" stroke="#d2f2ff"/>
		<path d="M73,281L71,431L235,432Z" fill="#c6eafd" stroke="#c6eafd"/>
		<path d="M73,281L235,432L236,170Z" fill="#d8f2fc" stroke="#d8f2fc"/>
		<path d="M236,170L235,432L356,258Z" fill="#d4effa" stroke="#d4effa"/>
		<path d="M356,258L235,432L344,370Z" fill="#c3e8f9" stroke="#c3e8f9"/>
		<path d="M356,258L344,370L477,372Z" fill="#c3e7f8" stroke="#c3e7f8"/>
		<path d="M356,258L477,372L485,196Z" fill="#cce9f6" stroke="#cce9f6"/>
		<path d="M485,196L477,372L644,236Z" fill="#c4e6f3" stroke="#c4e6f3"/>
		<path d="M644,236L477,372L697,405Z" fill="#afdff1" stroke="#afdff1"/>
		<path d="M644,236L697,405L768,228Z" fill="#aedbee" stroke="#aedbee"/>
		<path d="M768,228L697,405L861,316Z" fill="#9fd5ec" stroke="#9fd5ec"/>
		<path d="M1000,250L861,316L1019,383Z" fill="#8cc9e6" stroke="#8cc9e6"/>
		<path d="M1000,250L1019,383L1118,242Z" fill="#88c4e3" stroke="#88c4e3"/>
		<path d="M1118,242L1019,383L1096,402Z" fill="#7bbee1" stroke="#7bbee1"/>
		<path d="M1118,242L1096,402L1228,282Z" fill="#7dbbde" stroke="#7dbbde"/>
		<path d="M1228,282L1096,402L1217,426Z" fill="#6bb2dd" stroke="#6bb2dd"/>
		<path d="M1228,282L1217,426L1402,394Z" fill="#64a9d8" stroke="#64a9d8"/>
		<path d="M1228,282L1402,394L1451,224Z" fill="#70a8d1" stroke="#70a8d1"/>
		<path d="M1451,224L1402,394L1564,361Z" fill="#639ac9" stroke="#639ac9"/>
		<path d="M1451,224L1564,361L1633,186Z" fill="#6f96c2" stroke="#6f96c2"/>
		<path d="M1633,186L1564,361L1727,321Z" fill="#688bbb" stroke="#688bbb"/>
		<path d="M1633,186L1727,321L1778,248Z" fill="#7086b5" stroke="#7086b5"/>
		<path d="M1778,248L1727,321L1858,329Z" fill="#667bb0" stroke="#667bb0"/>
		<path d="M1778,248L1858,329L1891,266Z" fill="#6a7cab" stroke="#6a7cab"/>
		<path d="M1891,266L1858,329L1887,528Z" fill="#5473a8" stroke="#5473a8"/>
		<path d="M1891,266L1887,528L1902,792Z" fill="#2e5ca1" stroke="#2e5ca1"/>
		<path d="M-91,374L-133,523L71,431Z" fill="#c0e8ff" stroke="#c0e8ff"/>
		<path d="M71,431L-133,523L65,571Z" fill="#aeddfa" stroke="#aeddfa"/>
		<path d="M71,431L65,571L235,432Z" fill="#addcfa" stroke="#addcfa"/>
		<path d="M235,432L65,571L270,560Z" fill="#a0d3f6" stroke="#a0d3f6"/>
		<path d="M235,432L270,560L357,497Z" fill="#a0d3f6" stroke="#a0d3f6"/>
		<path d="M235,432L357,497L344,370Z" fill="#addcf9" stroke="#addcf9"/>
		<path d="M344,370L357,497L477,372Z" fill="#aedcf8" stroke="#aedcf8"/>
		<path d="M477,372L357,497L491,551Z" fill="#9bd1f4" stroke="#9bd1f4"/>
		<path d="M477,372L491,551L697,405Z" fill="#97d1f3" stroke="#97d1f3"/>
		<path d="M697,405L491,551L660,576Z" fill="#82c4ec" stroke="#82c4ec"/>
		<path d="M697,405L660,576L881,473Z" fill="#78c0ea" stroke="#78c0ea"/>
		<path d="M697,405L881,473L861,316Z" fill="#86c8eb" stroke="#86c8eb"/>
		<path d="M861,316L881,473L1019,383Z" fill="#7dc2e7" stroke="#7dc2e7"/>
		<path d="M1019,383L881,473L1015,528Z" fill="#65b3e4" stroke="#65b3e4"/>
		<path d="M1019,383L1015,528L1096,402Z" fill="#64b2e3" stroke="#64b2e3"/>
		<path d="M1096,402L1015,528L1089,526Z" fill="#57a9df" stroke="#57a9df"/>
		<path d="M1096,402L1089,526L1217,426Z" fill="#59a9df" stroke="#59a9df"/>
		<path d="M1217,426L1089,526L1296,477Z" fill="#4ea0da" stroke="#4ea0da"/>
		<path d="M1217,426L1296,477L1402,394Z" fill="#519dd6" stroke="#519dd6"/>
		<path d="M1402,394L1296,477L1462,520Z" fill="#4590ce" stroke="#4590ce"/>
		<path d="M1402,394L1462,520L1564,361Z" fill="#498cc8" stroke="#498cc8"/>
		<path d="M1564,361L1462,520L1568,548Z" fill="#3a7ec1" stroke="#3a7ec1"/>
		<path d="M1564,361L1568,548L1713,561Z" fill="#3774ba" stroke="#3774ba"/>
		<path d="M1564,361L1713,561L1727,321Z" fill="#4979b9" stroke="#4979b9"/>
		<path d="M1727,321L1713,561L1887,528Z" fill="#3b66ae" stroke="#3b66ae"/>
		<path d="M1727,321L1887,528L1858,329Z" fill="#4f70ad" stroke="#4f70ad"/>
		<path d="M-133,523L-107,966L-29,853Z" fill="#91aad9" stroke="#91aad9"/>
		<path d="M-133,523L-29,853L-28,616Z" fill="#95c5ed" stroke="#95c5ed"/>
		<path d="M-133,523L-28,616L65,571Z" fill="#a3d4f5" stroke="#a3d4f5"/>
		<path d="M65,571L-28,616L53,652Z" fill="#98cbf1" stroke="#98cbf1"/>
		<path d="M65,571L53,652L228,727Z" fill="#8cc1ec" stroke="#8cc1ec"/>
		<path d="M65,571L228,727L270,560Z" fill="#8dc4ed" stroke="#8dc4ed"/>
		<path d="M270,560L228,727L346,685Z" fill="#82b9e8" stroke="#82b9e8"/>
		<path d="M270,560L346,685L357,497Z" fill="#8cc5ee" stroke="#8cc5ee"/>
		<path d="M357,497L346,685L468,619Z" fill="#85bfeb" stroke="#85bfeb"/>
		<path d="M357,497L468,619L491,551Z" fill="#89c5ed" stroke="#89c5ed"/>
		<path d="M491,551L468,619L660,576Z" fill="#7bbce8" stroke="#7bbce8"/>
		<path d="M660,576L468,619L718,663Z" fill="#6db3e2" stroke="#6db3e2"/>
		<path d="M660,576L718,663L868,631Z" fill="#5ca9de" stroke="#5ca9de"/>
		<path d="M660,576L868,631L881,473Z" fill="#61b0e2" stroke="#61b0e2"/>
		<path d="M881,473L868,631L1015,528Z" fill="#58abdf" stroke="#58abdf"/>
		<path d="M1015,528L868,631L1073,635Z" fill="#479dd8" stroke="#479dd8"/>
		<path d="M1015,528L1073,635L1089,526Z" fill="#469ed8" stroke="#469ed8"/>
		<path d="M1089,526L1073,635L1253,690Z" fill="#378fd0" stroke="#378fd0"/>
		<path d="M1089,526L1253,690L1296,477Z" fill="#3a92d2" stroke="#3a92d2"/>
		<path d="M1296,477L1253,690L1408,630Z" fill="#2d82c8" stroke="#2d82c8"/>
		<path d="M1296,477L1408,630L1462,520Z" fill="#3384c7" stroke="#3384c7"/>
		<path d="M1462,520L1408,630L1555,631Z" fill="#2572bc" stroke="#2572bc"/>
		<path d="M1462,520L1555,631L1568,548Z" fill="#2671ba" stroke="#2671ba"/>
		<path d="M1568,548L1555,631L1668,679Z" fill="#1d61b0" stroke="#1d61b0"/>
		<path d="M1568,548L1668,679L1713,561Z" fill="#215fae" stroke="#215fae"/>
		<path d="M1713,561L1668,679L1819,705Z" fill="#184ea2" stroke="#184ea2"/>
		<path d="M1713,561L1819,705L1887,528Z" fill="#2151a1" stroke="#2151a1"/>
		<path d="M1887,528L1819,705L1902,792Z" fill="#144395" stroke="#144395"/>
		<path d="M-28,616L-29,853L67,768Z" fill="#8eb0df" stroke="#8eb0df"/>
		<path d="M-28,616L67,768L53,652Z" fill="#8dbfea" stroke="#8dbfea"/>
		<path d="M53,652L67,768L228,727Z" fill="#87b3e2" stroke="#87b3e2"/>
		<path d="M228,727L67,768L275,874Z" fill="#829ed4" stroke="#829ed4"/>
		<path d="M228,727L275,874L377,782Z" fill="#7c99d1" stroke="#7c99d1"/>
		<path d="M228,727L377,782L346,685Z" fill="#7ba8db" stroke="#7ba8db"/>
		<path d="M346,685L377,782L468,619Z" fill="#77ade0" stroke="#77ade0"/>
		<path d="M468,619L377,782L480,838Z" fill="#739fd6" stroke="#739fd6"/>
		<path d="M468,619L480,838L718,663Z" fill="#69a4d9" stroke="#69a4d9"/>
		<path d="M718,663L480,838L686,879Z" fill="#608cc7" stroke="#608cc7"/>
		<path d="M718,663L686,879L823,848Z" fill="#5284c4" stroke="#5284c4"/>
		<path d="M718,663L823,848L868,631Z" fill="#4c93d1" stroke="#4c93d1"/>
		<path d="M868,631L823,848L968,727Z" fill="#4389ca" stroke="#4389ca"/>
		<path d="M868,631L968,727L1073,635Z" fill="#3d93d3" stroke="#3d93d3"/>
		<path d="M968,727L823,848L935,879Z" fill="#3f74bb" stroke="#3f74bb"/>
		<path d="M968,727L935,879L1086,920Z" fill="#3668b3" stroke="#3668b3"/>
		<path d="M968,727L1086,920L1133,769Z" fill="#316cb7" stroke="#316cb7"/>
		<path d="M968,727L1133,769L1073,635Z" fill="#3383c8" stroke="#3383c8"/>
		<path d="M1073,635L1133,769L1253,690Z" fill="#2b7ec6" stroke="#2b7ec6"/>
		<path d="M1253,690L1133,769L1247,769Z" fill="#266fbc" stroke="#266fbc"/>
		<path d="M1253,690L1247,769L1440,813Z" fill="#1f61b3" stroke="#1f61b3"/>
		<path d="M1253,690L1440,813L1408,630Z" fill="#1d67b7" stroke="#1d67b7"/>
		<path d="M1408,630L1440,813L1555,631Z" fill="#1761b2" stroke="#1761b2"/>
		<path d="M1555,631L1440,813L1526,825Z" fill="#134da3" stroke="#134da3"/>
		<path d="M1555,631L1526,825L1668,679Z" fill="#1350a5" stroke="#1350a5"/>
		<path d="M1668,679L1526,825L1679,781Z" fill="#124099" stroke="#124099"/>
		<path d="M1668,679L1679,781L1819,705Z" fill="#133f99" stroke="#133f99"/>
		<path d="M1819,705L1679,781L1902,792Z" fill="#122f8c" stroke="#122f8c"/>
		<path d="M-29,853L-107,966L71,971Z" fill="#8c86be" stroke="#8c86be"/>
		<path d="M-29,853L71,971L67,768Z" fill="#8a93c9" stroke="#8a93c9"/>
		<path d="M67,768L71,971L229,937Z" fill="#8489c2" stroke="#8489c2"/>
		<path d="M67,768L229,937L275,874Z" fill="#808ec7" stroke="#808ec7"/>
		<path d="M275,874L229,937L381,991Z" fill="#7978b8" stroke="#7978b8"/>
		<path d="M275,874L381,991L377,782Z" fill="#7783c0" stroke="#7783c0"/>
		<path d="M377,782L381,991L480,838Z" fill="#7383c1" stroke="#7383c1"/>
		<path d="M480,838L381,991L534,968Z" fill="#6e72b4" stroke="#6e72b4"/>
		<path d="M480,838L534,968L686,879Z" fill="#6477b7" stroke="#6477b7"/>
		<path d="M686,879L534,968L647,1029Z" fill="#5e65aa" stroke="#5e65aa"/>
		<path d="M686,879L647,1029L863,998Z" fill="#505ea5" stroke="#505ea5"/>
		<path d="M686,879L863,998L823,848Z" fill="#4a66ae" stroke="#4a66ae"/>
		<path d="M823,848L863,998L933,933Z" fill="#415da9" stroke="#415da9"/>
		<path d="M823,848L933,933L935,879Z" fill="#3f64af" stroke="#3f64af"/>
		<path d="M935,879L933,933L1086,920Z" fill="#3659a7" stroke="#3659a7"/>
		<path d="M1133,769L1086,920L1247,769Z" fill="#2961b1" stroke="#2961b1"/>
		<path d="M1247,769L1086,920L1321,999Z" fill="#234aa1" stroke="#234aa1"/>
		<path d="M1247,769L1321,999L1440,813Z" fill="#1c479e" stroke="#1c479e"/>
		<path d="M1440,813L1321,999L1392,1018Z" fill="#172e8c" stroke="#172e8c"/>
		<path d="M1440,813L1392,1018L1556,943Z" fill="#132a89" stroke="#132a89"/>
		<path d="M1440,813L1556,943L1526,825Z" fill="#113591" stroke="#113591"/>
		<path d="M1526,825L1556,943L1679,781Z" fill="#112f8c" stroke="#112f8c"/>
		<path d="M1679,781L1556,943L1774,1010Z" fill="#10187b" stroke="#10187b"/>
		<path d="M1679,781L1774,1010L1847,923Z" fill="#100f75" stroke="#100f75"/>
		<path d="M1679,781L1847,923L1902,792Z" fill="#111e7e" stroke="#111e7e"/>
		<path d="M-107,966L647,1029L71,971Z" fill="#7e76b0" stroke="#7e76b0"/>
		<path d="M71,971L647,1029L381,991Z" fill="#7470ab" stroke="#7470ab"/>
		<path d="M71,971L381,991L229,937Z" fill="#7d75b3" stroke="#7d75b3"/>
		<path d="M381,991L647,1029L534,968Z" fill="#6769a7" stroke="#6769a7"/>
		<path d="M647,1029L1392,1018L863,998Z" fill="#364e95" stroke="#364e95"/>
		<path d="M863,998L1392,1018L1321,999Z" fill="#233d8e" stroke="#233d8e"/>
		<path d="M863,998L1321,999L1086,920Z" fill="#2b4598" stroke="#2b4598"/>
		<path d="M863,998L1086,920L933,933Z" fill="#3851a1" stroke="#3851a1"/>
		<path d="M1392,1018L1774,1010L1556,943Z" fill="#0e1674" stroke="#0e1674"/>
	</g>
</svg>